<svg width="305" height="299" viewBox="0 0 305 299" fill="none" xmlns="http://www.w3.org/2000/svg">
<rect x="69.8398" y="1.11149" width="235.415" height="233.903" rx="23" transform="rotate(6.8082 69.8398 1.11149)" fill="#1977FF" stroke="black" stroke-width="2"/>
<rect x="2.01948" y="50.5031" width="248.498" height="246.091" rx="22.5" transform="rotate(0.120216 2.01948 50.5031)" fill="#1977FF" stroke="black" stroke-width="3"/>
<path d="M39.5 177.25C39.5 168.75 40.8 161.2 43.4 154.6C46.1 148 49.75 142.45 54.35 137.95C58.95 133.35 64.25 129.85 70.25 127.45C76.25 125.05 82.6 123.85 89.3 123.85C95.7 123.85 101.6 124.85 107 126.85C112.5 128.75 117.7 131.6 122.6 135.4L110.45 151.45C107.35 149.05 104 147.15 100.4 145.75C96.8 144.25 92.95 143.5 88.85 143.5C83.65 143.5 78.9 144.75 74.6 147.25C70.4 149.75 67.05 153.55 64.55 158.65C62.05 163.65 60.8 169.85 60.8 177.25C60.8 184.65 62.05 190.9 64.55 196C67.05 201 70.45 204.75 74.75 207.25C79.05 209.75 83.8 211 89 211C93.3 211 97.25 210.25 100.85 208.75C104.55 207.15 107.95 204.95 111.05 202.15L123.5 217.9C118.6 222.1 113.4 225.3 107.9 227.5C102.4 229.6 96.3 230.65 89.6 230.65C82.8 230.65 76.35 229.45 70.25 227.05C64.25 224.65 58.95 221.2 54.35 216.7C49.75 212.1 46.1 206.5 43.4 199.9C40.8 193.3 39.5 185.75 39.5 177.25Z" fill="white"/>
<path d="M130.5 176.25C130.5 167.75 131.8 160.2 134.4 153.6C137.1 147 140.75 141.45 145.35 136.95C149.95 132.35 155.25 128.85 161.25 126.45C167.25 124.05 173.6 122.85 180.3 122.85C186.7 122.85 192.6 123.85 198 125.85C203.5 127.75 208.7 130.6 213.6 134.4L201.45 150.45C198.35 148.05 195 146.15 191.4 144.75C187.8 143.25 183.95 142.5 179.85 142.5C174.65 142.5 169.9 143.75 165.6 146.25C161.4 148.75 158.05 152.55 155.55 157.65C153.05 162.65 151.8 168.85 151.8 176.25C151.8 183.65 153.05 189.9 155.55 195C158.05 200 161.45 203.75 165.75 206.25C170.05 208.75 174.8 210 180 210C184.3 210 188.25 209.25 191.85 207.75C195.55 206.15 198.95 203.95 202.05 201.15L214.5 216.9C209.6 221.1 204.4 224.3 198.9 226.5C193.4 228.6 187.3 229.65 180.6 229.65C173.8 229.65 167.35 228.45 161.25 226.05C155.25 223.65 149.95 220.2 145.35 215.7C140.75 211.1 137.1 205.5 134.4 198.9C131.8 192.3 130.5 184.75 130.5 176.25Z" fill="white"/>
</svg>
